<svg xmlns="http://www.w3.org/2000/svg" width="128" height="128" viewBox="0 0 128 128">
  <defs>
    <linearGradient id="gradient" x1="0%" y1="0%" x2="100%" y2="100%">
      <stop offset="0%" style="stop-color:#1DA1F2" />
      <stop offset="100%" style="stop-color:#0D8ECF" />
    </linearGradient>
    <filter id="shadow" x="-20%" y="-20%" width="140%" height="140%">
      <feGaussianBlur in="SourceAlpha" stdDeviation="3" />
      <feOffset dx="0" dy="2" result="offsetblur" />
      <feComponentTransfer>
        <feFuncA type="linear" slope="0.3" />
      </feComponentTransfer>
      <feMerge>
        <feMergeNode />
        <feMergeNode in="SourceGraphic" />
      </feMerge>
    </filter>
  </defs>
  
  <!-- Background -->
  <rect width="128" height="128" rx="20" fill="url(#gradient)" />
  
  <!-- Twitter Bird Icon -->
  <path d="M102,34c-3,2-6.3,3.3-9.8,3.9c-2.8-3-6.8-4.9-11.2-4.9c-8.5,0-15.4,6.9-15.4,15.4c0,1.2,0.1,2.4,0.4,3.5c-12.8-0.6-24.2-6.8-31.8-16.1c-1.3,2.3-2.1,4.9-2.1,7.7c0,5.3,2.7,10,6.8,12.8c-2.5-0.1-4.9-0.8-6.9-1.9v0.2c0,7.4,5.3,13.6,12.3,15c-1.3,0.3-2.6,0.5-4,0.5c-1,0-1.9-0.1-2.9-0.3c2,6.1,7.6,10.5,14.3,10.6c-5.2,4.1-11.8,6.6-19,6.6c-1.2,0-2.5-0.1-3.7-0.2c6.8,4.4,14.8,6.9,23.4,6.9c28.1,0,43.5-23.3,43.5-43.5c0-0.7,0-1.3-0.1-2c3-2.2,5.5-4.9,7.6-7.9c-2.7,1.2-5.7,2-8.8,2.4C97.1,41,99.5,37.8,102,34z" fill="white" filter="url(#shadow)" />
  
  <!-- AI Badge -->
  <circle cx="96" cy="32" r="16" fill="#FF5722" stroke="white" stroke-width="2" />
  <text x="96" y="38" font-family="Arial" font-size="16" font-weight="bold" text-anchor="middle" fill="white">AI</text>
  
  <!-- Indian Tech Elements -->
  <g transform="translate(30, 85) scale(0.25)" fill="white" opacity="0.7">
    <!-- Code Symbol -->
    <path d="M50,0 L0,50 L50,100 L65,85 L30,50 L65,15 Z" />
    <path d="M150,0 L200,50 L150,100 L135,85 L170,50 L135,15 Z" />
    <!-- React-like Symbol -->
    <ellipse cx="100" cy="50" rx="25" ry="10" fill="none" stroke="white" stroke-width="5" transform="rotate(30, 100, 50)" />
    <ellipse cx="100" cy="50" rx="25" ry="10" fill="none" stroke="white" stroke-width="5" transform="rotate(90, 100, 50)" />
    <ellipse cx="100" cy="50" rx="25" ry="10" fill="none" stroke="white" stroke-width="5" transform="rotate(150, 100, 50)" />
    <circle cx="100" cy="50" r="8" />
  </g>
</svg>