<svg xmlns="http://www.w3.org/2000/svg" width="16" height="16" viewBox="0 0 16 16">
  <defs>
    <linearGradient id="gradient" x1="0%" y1="0%" x2="100%" y2="100%">
      <stop offset="0%" style="stop-color:#1DA1F2" />
      <stop offset="100%" style="stop-color:#0D8ECF" />
    </linearGradient>
  </defs>
  <rect width="16" height="16" rx="3" fill="url(#gradient)" />
  <path d="M12.5,4.5c-0.3,0.2-0.7,0.3-1.1,0.4c-0.3-0.3-0.7-0.5-1.2-0.5c-0.9,0-1.6,0.7-1.6,1.6c0,0.1,0,0.3,0,0.4C7.4,6.3,6.3,5.7,5.5,4.8C5.3,5,5.3,5.2,5.3,5.5c0,0.5,0.3,1,0.7,1.3C5.7,6.8,5.5,6.7,5.3,6.6v0c0,0.8,0.5,1.4,1.3,1.5c-0.1,0-0.3,0.1-0.4,0.1c-0.1,0-0.2,0-0.3,0c0.2,0.6,0.8,1.1,1.5,1.1c-0.5,0.4-1.2,0.7-2,0.7c-0.1,0-0.3,0-0.4,0c0.7,0.5,1.5,0.7,2.4,0.7c2.9,0,4.5-2.4,4.5-4.5c0-0.1,0-0.1,0-0.2c0.3-0.2,0.6-0.5,0.8-0.8c-0.3,0.1-0.6,0.2-0.9,0.2C12.2,5.2,12.4,4.9,12.5,4.5z" fill="white" />
  <circle cx="13" cy="3" r="1.5" fill="#FF5722" stroke="white" stroke-width="0.5" />
</svg>