<svg xmlns="http://www.w3.org/2000/svg" width="48" height="48" viewBox="0 0 48 48">
  <defs>
    <linearGradient id="gradient" x1="0%" y1="0%" x2="100%" y2="100%">
      <stop offset="0%" style="stop-color:#1DA1F2" />
      <stop offset="100%" style="stop-color:#0D8ECF" />
    </linearGradient>
  </defs>
  <rect width="48" height="48" rx="8" fill="url(#gradient)" />
  <path d="M38,13c-1.1,0.7-2.3,1.2-3.5,1.4c-1-1.1-2.5-1.8-4.1-1.8c-3.1,0-5.6,2.5-5.6,5.6c0,0.4,0,0.9,0.1,1.3c-4.7-0.2-8.8-2.5-11.6-5.9c-0.5,0.8-0.8,1.8-0.8,2.8c0,1.9,1,3.6,2.5,4.6c-0.9,0-1.8-0.3-2.5-0.7v0.1c0,2.7,1.9,5,4.4,5.5c-0.5,0.1-1,0.2-1.5,0.2c-0.4,0-0.7,0-1-0.1c0.7,2.2,2.8,3.8,5.2,3.9c-1.9,1.5-4.3,2.4-6.9,2.4c-0.5,0-0.9,0-1.3-0.1c2.5,1.6,5.4,2.5,8.6,2.5c10.3,0,15.9-8.5,15.9-15.9c0-0.2,0-0.5,0-0.7c1.1-0.8,2-1.8,2.8-2.9c-1,0.4-2.1,0.7-3.2,0.9C36.7,15.7,37.6,14.5,38,13z" fill="white" />
  <circle cx="38" cy="10" r="4" fill="#FF5722" stroke="white" stroke-width="1" />
  <text x="38" y="12" font-family="Arial" font-size="6" font-weight="bold" text-anchor="middle" fill="white">AI</text>
</svg>